
<svg
xmlns="http://www.w3.org/2000/svg"

width="620"

height="470"

viewBox="0 0 620 470"
>


<defs>


<linearGradient
id="gfgBackground"

x1="0%"

y1="0%"

x2="100%"

y2="100%"
>


<stop
offset="0%"
stop-color="#0D1117"
/>


<stop
offset="100%"
stop-color="#161B22"
/>


</linearGradient>


</defs>


<rect

x="2"

y="2"

width="616"

height="466"

rx="18"

fill="url(#gfgBackground)"

stroke="#30363D"

stroke-width="2"

/>


<text

x="30"

y="48"

font-family="Segoe UI, Arial, sans-serif"

font-size="28"

font-weight="700"

fill="#3FB950"

>

GeeksforGeeks

</text>


<line

x1="25"

y1="66"

x2="595"

y2="66"

stroke="#30363D"

/>


<text

x="30"

y="105"

font-family="Segoe UI, Arial, sans-serif"

font-size="19"

font-weight="600"

fill="#C9D1D9"

>

Problems Overview

</text>



<circle

cx="170"

cy="225"

r="78"

fill="none"

stroke="#484F58"

stroke-width="18"

opacity="0.35"

/>



<path

d="
M 229.3932435935262 174.43872415138182

A 78 78

0

0

0

172.7221607427951 147.0475154925105
"

fill="none"

stroke="#39C5CF"

stroke-width="18"

stroke-linecap="round"

/>



<path

d="
M 145.07351372646028 298.90987946178126

A 78 78

0

0

0

232.77554094842995 178.70495211545847
"

fill="none"

stroke="#3FB950"

stroke-width="18"

stroke-linecap="round"

/>



<path

d="
M 142.88291293797892 151.86544189460932

A 78 78

0

0

0

139.9785408281146 296.9910549248365
"

fill="none"

stroke="#D29922"

stroke-width="18"

stroke-linecap="round"

/>



<path

d="
M 167.27783925720493 147.0475154925105

A 78 78

0

0

0

148.05057768142888 150.15200163076497
"

fill="none"

stroke="#F85149"

stroke-width="18"

stroke-linecap="round"

/>



<text

x="170"

y="220"

text-anchor="middle"

font-family="Segoe UI, Arial, sans-serif"

font-size="34"

font-weight="700"

fill="#C9D1D9"

>

314

</text>


<text

x="170"

y="250"

text-anchor="middle"

font-family="Segoe UI, Arial, sans-serif"

font-size="14"

fill="#8B949E"

>

Problems Solved

</text>



<circle

cx="325"

cy="130"

r="6"

fill="#A371F7"

/>


<text

x="343"

y="135"

font-family="Segoe UI, Arial, sans-serif"

font-size="16"

fill="#C9D1D9"

>

School

</text>


<text

x="555"

y="135"

text-anchor="end"

font-family="Segoe UI, Arial, sans-serif"

font-size="16"

font-weight="700"

fill="#A371F7"

>

0

</text>



<circle

cx="325"

cy="164"

r="6"

fill="#39C5CF"

/>


<text

x="343"

y="169"

font-family="Segoe UI, Arial, sans-serif"

font-size="16"

fill="#C9D1D9"

>

Basic

</text>


<text

x="555"

y="169"

text-anchor="end"

font-family="Segoe UI, Arial, sans-serif"

font-size="16"

font-weight="700"

fill="#39C5CF"

>

45

</text>



<circle

cx="325"

cy="198"

r="6"

fill="#3FB950"

/>


<text

x="343"

y="203"

font-family="Segoe UI, Arial, sans-serif"

font-size="16"

fill="#C9D1D9"

>

Easy

</text>


<text

x="555"

y="203"

text-anchor="end"

font-family="Segoe UI, Arial, sans-serif"

font-size="16"

font-weight="700"

fill="#3FB950"

>

130

</text>



<circle

cx="325"

cy="232"

r="6"

fill="#D29922"

/>


<text

x="343"

y="237"

font-family="Segoe UI, Arial, sans-serif"

font-size="16"

fill="#C9D1D9"

>

Medium

</text>


<text

x="555"

y="237"

text-anchor="end"

font-family="Segoe UI, Arial, sans-serif"

font-size="16"

font-weight="700"

fill="#D29922"

>

123

</text>



<circle

cx="325"

cy="266"

r="6"

fill="#F85149"

/>


<text

x="343"

y="271"

font-family="Segoe UI, Arial, sans-serif"

font-size="16"

fill="#C9D1D9"

>

Hard

</text>


<text

x="555"

y="271"

text-anchor="end"

font-family="Segoe UI, Arial, sans-serif"

font-size="16"

font-weight="700"

fill="#F85149"

>

16

</text>



<rect

x="20"

y="345"

width="130"

height="75"

rx="12"

fill="#21262D"

/>


<text

x="85"

y="375"

text-anchor="middle"

font-family="Segoe UI, Arial, sans-serif"

font-size="20"

font-weight="700"

fill="#3FB950"

>

832

</text>


<text

x="85"

y="400"

text-anchor="middle"

font-family="Segoe UI, Arial, sans-serif"

font-size="11"

fill="#8B949E"

>

Coding Score

</text>



<rect

x="170"

y="345"

width="130"

height="75"

rx="12"

fill="#21262D"

/>


<text

x="235"

y="375"

text-anchor="middle"

font-family="Segoe UI, Arial, sans-serif"

font-size="20"

font-weight="700"

fill="#58A6FF"

>

314

</text>


<text

x="235"

y="400"

text-anchor="middle"

font-family="Segoe UI, Arial, sans-serif"

font-size="11"

fill="#8B949E"

>

Problems Solved

</text>



<rect

x="320"

y="345"

width="130"

height="75"

rx="12"

fill="#21262D"

/>


<text

x="385"

y="375"

text-anchor="middle"

font-family="Segoe UI, Arial, sans-serif"

font-size="20"

font-weight="700"

fill="#D29922"

>

151

</text>


<text

x="385"

y="400"

text-anchor="middle"

font-family="Segoe UI, Arial, sans-serif"

font-size="11"

fill="#8B949E"

>

Institute Rank

</text>



<rect

x="470"

y="345"

width="130"

height="75"

rx="12"

fill="#21262D"

/>


<text

x="535"

y="375"

text-anchor="middle"

font-family="Segoe UI, Arial, sans-serif"

font-size="20"

font-weight="700"

fill="#A371F7"

>

0

</text>


<text

x="535"

y="400"

text-anchor="middle"

font-family="Segoe UI, Arial, sans-serif"

font-size="11"

fill="#8B949E"

>

Articles Published

</text>



<text

x="310.0"

y="450"

text-anchor="middle"

font-family="Segoe UI, Arial, sans-serif"

font-size="12"

fill="#8B949E"

>

Updated automatically using GitHub Actions

</text>


</svg>

